<?xml version="1.0" encoding="UTF-8" standalone="no"?>
<svg
   xmlns:dc="http://purl.org/dc/elements/1.1/"
   xmlns:cc="http://creativecommons.org/ns#"
   xmlns:rdf="http://www.w3.org/1999/02/22-rdf-syntax-ns#"
   xmlns:svg="http://www.w3.org/2000/svg"
   xmlns="http://www.w3.org/2000/svg"
   xmlns:sodipodi="http://sodipodi.sourceforge.net/DTD/sodipodi-0.dtd"
   xmlns:inkscape="http://www.inkscape.org/namespaces/inkscape"
   width="1000"
   height="1000"
   viewBox="0 0 1000 1000"
   id="svg2"
   version="1.1"
   inkscape:version="0.91 r13725"
   sodipodi:docname="mastodon-inverted-2.svg">
  <metadata
     id="metadata12">
    <rdf:RDF>
      <cc:Work
         rdf:about="">
        <dc:format>image/svg+xml</dc:format>
        <dc:type
           rdf:resource="http://purl.org/dc/dcmitype/StillImage" />
        <dc:title></dc:title>
      </cc:Work>
    </rdf:RDF>
  </metadata>
  <defs
     id="defs10" />
  <sodipodi:namedview
     pagecolor="#ffffff"
     bordercolor="#666666"
     borderopacity="1"
     objecttolerance="10"
     gridtolerance="10"
     guidetolerance="10"
     inkscape:pageopacity="0"
     inkscape:pageshadow="2"
     inkscape:window-width="1280"
     inkscape:window-height="1024"
     id="namedview8"
     showgrid="false"
     inkscape:zoom="0.56105564"
     inkscape:cx="440.69528"
     inkscape:cy="588.51777"
     inkscape:window-x="0"
     inkscape:window-y="0"
     inkscape:window-maximized="1"
     inkscape:current-layer="svg2" />
  <path
     id="path6"
     style="fill:#ffffff"
     d="M 841.02648,161.67816 Q 700.4842,20.863397 501.67656,20.863397 q -198.48717,0 -339.02945,140.814763 -140.542273,140.50006 -140.542273,338.9172 0,198.74143 140.542273,339.23765 140.54228,140.49622 339.02945,140.4943 198.80764,0 339.34992,-140.4943 140.54227,-140.4943 140.54227,-339.23765 0,-198.41714 -140.54227,-338.9172 z m -614.031,539.25902 -3.20173,0 q -41.29821,0 -70.43137,-28.80311 -28.8127,-29.12357 -28.8127,-70.40738 l 0,-200.98274 0,-0.63901 q 1.28088,-39.36392 28.8127,-66.8871 29.13316,-29.11973 70.43137,-29.11973 41.2982,0 70.1109,29.12356 28.17274,27.84365 29.13317,67.52707 l 0,210.57834 q 2.2413,52.80602 44.81943,89.61393 z M 598.35886,553.07803 q -0.95946,39.68343 -29.13316,67.52707 -28.8127,29.12261 -70.1109,29.12357 -41.29821,9.6e-4 -70.43137,-29.12357 -27.53662,-27.52318 -28.8127,-66.88711 l 0,-201.61886 q 0,-41.28574 28.8127,-70.40738 29.13316,-28.80311 70.43137,-28.80311 l 144.0635,0 q -42.57909,36.80503 -44.81944,89.61393 z m 275.32201,48.64482 q 0,41.28573 -28.8127,70.40738 -29.13316,28.80311 -70.43137,28.80311 l -144.0635,0 q 42.57909,-36.80504 44.81943,-89.61393 l 0,-210.57355 q 0.95947,-39.68534 29.13317,-67.52707 28.8127,-29.12452 70.1109,-29.12452 41.29821,0 70.43137,29.12357 27.53661,27.52414 28.8127,66.88806 l 0,201.61695 z M 501.83679,500.59535 M 0,-2.0521395 l 1003.6736,0 0,1005.2949395 -1003.6736,0 z" />
</svg>
